<svg width="40" height="40" viewBox="0 0 40 40" fill="none" xmlns="http://www.w3.org/2000/svg">
<path d="M8.47 8.906C5.92008 11.5526 4.359 14.9963 4.04914 18.6583C3.73928 22.3204 4.69954 25.9774 6.76851 29.0148C8.83749 32.0522 11.889 34.2848 15.4102 35.3372C18.9314 36.3897 22.7076 36.1979 26.104 34.794C26.334 33.294 25.83 31.854 25.624 31.35C25.164 30.23 23.648 28.316 21.118 25.662C20.442 24.952 20.486 24.406 20.728 22.788L20.754 22.606C20.918 21.498 21.194 20.842 24.924 20.25C26.82 19.95 27.318 20.706 28.008 21.756L28.24 22.1C28.896 23.06 29.382 23.28 30.116 23.612C30.446 23.762 30.856 23.952 31.406 24.262C32.71 25.008 32.71 25.85 32.71 27.694V27.904C32.71 28.686 32.634 29.374 32.514 29.972C34.0487 28.0458 35.1182 25.7915 35.6392 23.3844C36.1601 20.9773 36.1186 18.4824 35.5176 16.0941C34.9167 13.7057 33.7727 11.4882 32.1746 9.61428C30.5765 7.74035 28.5675 6.26052 26.304 5.29C25.198 6.036 23.68 7.094 23.15 7.82C22.88 8.19 22.496 10.084 21.25 10.24C20.926 10.28 20.488 10.252 20.024 10.222C18.78 10.142 17.08 10.032 16.536 11.51C16.19 12.446 16.13 14.99 17.248 16.31C17.428 16.52 17.462 16.91 17.34 17.348C17.18 17.922 16.858 18.272 16.756 18.344C16.564 18.232 16.18 17.786 15.918 17.484C15.292 16.754 14.508 15.844 13.496 15.564C13.128 15.462 12.724 15.378 12.33 15.294C11.232 15.064 9.99 14.802 9.7 14.186C9.488 13.734 9.49 13.112 9.49 12.456C9.49 11.622 9.49 10.68 9.082 9.766C8.94016 9.43982 8.7317 9.14688 8.47 8.906ZM20 40C8.954 40 0 31.046 0 20C0 8.954 8.954 0 20 0C31.046 0 40 8.954 40 20C40 31.046 31.046 40 20 40Z" fill="#1165E6"/>
</svg>
