<svg width="40" height="40" viewBox="0 0 40 40" fill="none" xmlns="http://www.w3.org/2000/svg">
<path d="M20 0L28.486 8.486L25.656 11.314L20 5.656L14.344 11.314L11.514 8.486L20 0ZM0 20L8.486 11.514L11.314 14.344L5.656 20L11.314 25.656L8.486 28.486L0 20ZM40 20L31.514 28.486L28.686 25.656L34.344 20L28.686 14.344L31.514 11.514L40 20ZM20 24C18.9391 24 17.9217 23.5786 17.1716 22.8284C16.4214 22.0783 16 21.0609 16 20C16 18.9391 16.4214 17.9217 17.1716 17.1716C17.9217 16.4214 18.9391 16 20 16C21.0609 16 22.0783 16.4214 22.8284 17.1716C23.5786 17.9217 24 18.9391 24 20C24 21.0609 23.5786 22.0783 22.8284 22.8284C22.0783 23.5786 21.0609 24 20 24ZM20 40L11.514 31.514L14.344 28.686L20 34.344L25.656 28.686L28.486 31.514L20 40Z" fill="#1165E6"/>
</svg>
