<svg width="42" height="42" viewBox="0 0 42 42" fill="none" xmlns="http://www.w3.org/2000/svg">
<path d="M35.75 27.206C37.0477 24.1226 37.3464 20.71 36.6042 17.4481C35.8619 14.1861 34.116 11.2388 31.6119 9.02051C29.1077 6.80223 25.9714 5.42453 22.6437 5.08112C19.316 4.73772 15.9644 5.44586 13.06 7.106L11.076 3.632C14.1113 1.89723 17.5484 0.988736 21.0444 0.997159C24.5404 1.00558 27.9731 1.93063 31 3.68C39.98 8.864 43.42 19.964 39.234 29.22L41.918 30.768L33.588 35.196L33.258 25.768L35.75 27.206ZM6.25 14.794C4.95229 17.8774 4.65357 21.29 5.39584 24.5519C6.1381 27.8139 7.88403 30.7612 10.3881 32.9795C12.8923 35.1978 16.0286 36.5755 19.3563 36.9189C22.684 37.2623 26.0356 36.5541 28.94 34.894L30.924 38.368C27.8887 40.1028 24.4516 41.0113 20.9556 41.0028C17.4596 40.9944 14.0269 40.0694 11 38.32C2.02 33.136 -1.42 22.036 2.766 12.78L0.0800018 11.234L8.41 6.806L8.74 16.234L6.248 14.796L6.25 14.794ZM14 25H25C25.2652 25 25.5196 24.8946 25.7071 24.7071C25.8946 24.5196 26 24.2652 26 24C26 23.7348 25.8946 23.4804 25.7071 23.2929C25.5196 23.1054 25.2652 23 25 23H17C15.6739 23 14.4022 22.4732 13.4645 21.5355C12.5268 20.5979 12 19.3261 12 18C12 16.6739 12.5268 15.4022 13.4645 14.4645C14.4022 13.5268 15.6739 13 17 13H19V11H23V13H28V17H17C16.7348 17 16.4804 17.1054 16.2929 17.2929C16.1054 17.4804 16 17.7348 16 18C16 18.2652 16.1054 18.5196 16.2929 18.7071C16.4804 18.8946 16.7348 19 17 19H25C26.3261 19 27.5979 19.5268 28.5355 20.4645C29.4732 21.4021 30 22.6739 30 24C30 25.3261 29.4732 26.5979 28.5355 27.5355C27.5979 28.4732 26.3261 29 25 29H23V31H19V29H14V25Z" fill="#1165E6"/>
</svg>
