<svg width="48" height="48" viewBox="0 0 48 48" fill="none" xmlns="http://www.w3.org/2000/svg">
<rect width="48" height="48" rx="8" fill="#F6F7FE"/>
<path fill-rule="evenodd" clip-rule="evenodd" d="M17.0229 16.5935H21.7425V27.267C20.6512 28.0156 19.8152 28.6319 19.2347 29.116C18.6334 29.6173 17.8961 30.3479 17.0229 31.3077V16.5935Z" fill="url(#paint0_linear_318_69958)"/>
<path d="M23.9411 34.6131C22.5285 33.1653 24.7466 29.5951 27.669 25.8464C30.9916 21.5836 35.0736 18.9142 35.692 18.6078C25.724 21.9054 18.2682 34.1627 18.4303 34.7739" fill="#178FFF"/>
<path d="M24.9882 24.971C24.6454 25.1514 22.9479 26.3733 21.2325 27.6616C20.0867 28.5221 19.0133 29.3927 18.2633 30.128L18.2629 30.1316L17.0229 31.3356V28.8058L18.2629 28.0589L18.2629 28.6574C18.3069 28.4152 18.5842 27.712 20.278 26.939C23.3322 25.545 25.5601 24.6699 24.9882 24.971Z" fill="#178FFF"/>
<path d="M32.9297 30.1531C32.9297 31.6452 32.4479 32.7884 31.4841 33.5826C30.5204 34.3768 29.2935 34.7739 27.8033 34.7739H18.3094C19.3625 33.1358 20.5296 31.5725 21.8023 30.0954V31.8137H27.2202C27.8357 31.8137 28.3378 31.6372 28.7266 31.2842C29.1153 30.9313 29.3097 30.4259 29.3097 29.7681C29.3097 29.1744 29.1153 28.6931 28.7266 28.3241C28.3378 27.9551 27.7709 27.7706 27.0259 27.7706H23.9201C24.8968 26.7614 29.9065 22.4358 30.4645 22.0203L28.8448 22.9765C28.8395 22.7733 28.8076 22.5716 28.7501 22.3765C28.6778 22.1225 28.5403 21.8914 28.3508 21.7058C28.0188 21.3849 27.5598 21.2245 26.974 21.2245H21.8023V26.905L18.2551 29.225V18.2643H27.8033C28.6272 18.2528 29.4425 18.4299 30.1859 18.7818C30.8685 19.1007 31.4487 19.6004 31.8623 20.2257C31.8721 20.2394 31.881 20.2538 31.8907 20.2683C32.0004 20.4413 32.0953 20.6233 32.1741 20.8122C31.6056 21.1951 31.0387 21.5962 30.4734 22.0155L32.2381 20.9726C32.3961 21.4159 32.4747 21.8831 32.4705 22.3532C32.4705 23.2677 32.2154 24.0579 31.7052 24.7237C31.2148 25.3756 30.531 25.8594 29.7494 26.1076V26.2038C30.6582 26.3628 31.4757 26.8484 32.0454 27.5676C32.6349 28.2965 32.9297 29.1584 32.9297 30.1531Z" fill="#178FFF"/>
<path d="M27.3667 32.524C28.0092 33.1758 28.2207 33.6956 28.0013 34.0833C27.7819 34.4709 27.15 34.6939 26.1055 34.7522H25.927H22.9569C22.9503 34.6492 22.9402 34.4704 23.3353 33.3952L23.8291 31.8315H26.5636H27.0824L27.3667 32.524Z" fill="url(#paint1_linear_318_69958)"/>
<path d="M21.7872 26.3315C21.7872 26.3315 20.6821 26.7861 19.5614 27.3275C19.1128 27.5512 18.6768 27.7979 18.2551 28.0666L18.2626 24.6082L18.2841 21.7034L21.7872 22.8073V26.3315Z" fill="url(#paint2_linear_318_69958)"/>
<path d="M30.5127 18.9517L27.7504 21.3326C27.7504 21.3326 28.1923 21.4894 28.4293 21.7546C28.5949 21.9363 28.7154 22.1544 28.7813 22.3913C29.7809 21.6328 30.8199 20.9276 31.8938 20.2788C31.6735 19.9288 31.3984 19.6164 31.0791 19.3536C30.8993 19.2074 30.71 19.0732 30.5127 18.9517Z" fill="url(#paint3_linear_318_69958)"/>
<path fill-rule="evenodd" clip-rule="evenodd" d="M12.1522 12.1178H26.6138V15.8571H12.1522V12.1178Z" fill="#178FFF"/>
<defs>
<linearGradient id="paint0_linear_318_69958" x1="19.2128" y1="20.1193" x2="21.1215" y2="28.3559" gradientUnits="userSpaceOnUse">
<stop stop-color="#178FFF"/>
<stop offset="0.172589" stop-color="#178FFF"/>
<stop offset="0.341788" stop-color="#178FFF"/>
<stop offset="1" stop-color="#156CB8"/>
</linearGradient>
<linearGradient id="paint1_linear_318_69958" x1="22.9538" y1="33.2934" x2="28.0851" y2="33.2934" gradientUnits="userSpaceOnUse">
<stop stop-color="#145D99"/>
<stop offset="0.8" stop-color="#178DFB"/>
<stop offset="1" stop-color="#178FFF"/>
</linearGradient>
<linearGradient id="paint2_linear_318_69958" x1="19.0947" y1="31.8701" x2="20.7252" y2="22.8775" gradientUnits="userSpaceOnUse">
<stop stop-color="#145D99"/>
<stop offset="1" stop-color="#178FFF"/>
</linearGradient>
<linearGradient id="paint3_linear_318_69958" x1="30.8254" y1="22.9904" x2="28.6839" y2="20.9879" gradientUnits="userSpaceOnUse">
<stop stop-color="#145D99"/>
<stop offset="1" stop-color="#178FFF"/>
</linearGradient>
</defs>
</svg>
