<svg width="48" height="48" viewBox="0 0 48 48" fill="none" xmlns="http://www.w3.org/2000/svg">
<path d="M0 8C0 3.58172 3.58172 0 8 0H40C44.4183 0 48 3.58172 48 8V40C48 44.4183 44.4183 48 40 48H8C3.58172 48 0 44.4183 0 40V8Z" fill="#F6F7FE"/>
<path fill-rule="evenodd" clip-rule="evenodd" d="M14 6C11.2386 6 9 8.23858 9 11V37C9 39.7614 11.2386 42 14 42H34C36.7614 42 39 39.7614 39 37V11C39 8.23858 36.7614 6 34 6H14ZM23.9989 9C25.6558 9 26.9989 10.3431 26.9989 12L31.4992 12C32.3277 12 32.9992 12.6716 32.9992 13.5C32.9992 14.3284 32.3276 15 31.4992 15H16.4992C15.6708 15 14.9992 14.3284 14.9992 13.5C14.9992 12.6716 15.6708 12 16.4992 12H20.9989C20.9989 10.3431 22.3421 9 23.9989 9Z" fill="url(#paint0_linear_866_2605)"/>
<g filter="url(#filter0_i_866_2605)">
<path d="M11.9997 21C11.9997 19.3431 13.3428 18 14.9997 18H32.9997C34.6566 18 35.9997 19.3431 35.9997 21V36C35.9997 37.6569 34.6566 39 32.9997 39H14.9997C13.3428 39 11.9997 37.6569 11.9997 36V21Z" fill="url(#paint1_linear_866_2605)"/>
</g>
<path fill-rule="evenodd" clip-rule="evenodd" d="M15.0003 22.5C15.0003 21.6716 15.6719 21 16.5003 21H27.7503C30.2356 21 32.2503 23.0147 32.2503 25.5C32.2503 26.6525 31.817 27.7039 31.1045 28.5C31.817 29.2961 32.2503 30.3475 32.2503 31.5C32.2503 33.9853 30.2356 36 27.7503 36H21.7503C20.9219 36 20.2503 35.3284 20.2503 34.5L20.2503 24H16.5003C15.6719 24 15.0003 23.3284 15.0003 22.5ZM23.2503 33H27.7503C28.5787 33 29.2503 32.3284 29.2503 31.5C29.2503 30.6716 28.5787 30 27.7503 30H23.2503V33ZM23.2503 27H27.7503C28.5787 27 29.2503 26.3284 29.2503 25.5C29.2503 24.6716 28.5787 24 27.7503 24H23.2503V27Z" fill="white"/>
<defs>
<filter id="filter0_i_866_2605" x="11.9997" y="18" width="24" height="21" filterUnits="userSpaceOnUse" color-interpolation-filters="sRGB">
<feFlood flood-opacity="0" result="BackgroundImageFix"/>
<feBlend mode="normal" in="SourceGraphic" in2="BackgroundImageFix" result="shape"/>
<feColorMatrix in="SourceAlpha" type="matrix" values="0 0 0 0 0 0 0 0 0 0 0 0 0 0 0 0 0 0 127 0" result="hardAlpha"/>
<feOffset/>
<feGaussianBlur stdDeviation="3"/>
<feComposite in2="hardAlpha" operator="arithmetic" k2="-1" k3="1"/>
<feColorMatrix type="matrix" values="0 0 0 0 1 0 0 0 0 1 0 0 0 0 1 0 0 0 0.25 0"/>
<feBlend mode="normal" in2="shape" result="effect1_innerShadow_866_2605"/>
</filter>
<linearGradient id="paint0_linear_866_2605" x1="9" y1="6" x2="39" y2="42" gradientUnits="userSpaceOnUse">
<stop stop-color="#153F7A"/>
<stop offset="1"/>
</linearGradient>
<linearGradient id="paint1_linear_866_2605" x1="11.9997" y1="18" x2="35.9997" y2="39" gradientUnits="userSpaceOnUse">
<stop stop-color="#69C0FF"/>
<stop offset="1" stop-color="#0065FF"/>
</linearGradient>
</defs>
</svg>
